# xmcd
#
# Track frame offsets:
#	150
#	20555
#	38062
#	56403
#	81950
#	100739
#	117101
#	137095
#	162382
#	185108
#
# Disc length: 2783 seconds
#
# Revision: 0
# Processed by: cddbd v1.5.2PL0 Copyright (c) Steve Scherf et al.
# Submitted via: audiograbber 1.83.01
#
DISCID=810add0a
DTITLE=Lichtpunkt - Geliebt
DYEAR=1900
DGENRE=
TTITLE0=Do not be afraid
TTITLE1=Leuchte der Welt
TTITLE2=Gloria in excelsis Deo
TTITLE3=Geliebt
TTITLE4=Mary, did you know
TTITLE5=Mary's Boychild
TTITLE6=Halleluja
TTITLE7=Down To Earth
TTITLE8=In dieser Nacht
TTITLE9=O Holy Night
EXTD=
EXTT0=
EXTT1=
EXTT2=
EXTT3=
EXTT4=
EXTT5=
EXTT6=
EXTT7=
EXTT8=
EXTT9=
PLAYORDER=
